<svg width="500" height="480" viewBox="0 0 500 480" fill="none" xmlns="http://www.w3.org/2000/svg">
<rect x="330" y="310" width="170" height="170" rx="2" fill="white"/>
<rect x="362" y="365.831" width="80.7651" height="80.7651" rx="2" transform="rotate(-13.9128 362 365.831)" fill="#4CAF50"/>
<path d="M412.572 402.039C411.235 402.37 409.822 402.156 408.643 401.445C407.464 400.734 406.615 399.584 406.284 398.247C405.818 396.366 406.435 394.466 407.718 393.239L421.691 379.757L416.388 398.152C415.956 400.006 414.538 401.552 412.572 402.039ZM407.162 380.2C410.203 379.447 413.25 379.584 416.061 380.349L413.037 383.256C411.434 383.047 409.675 383.144 407.995 383.56C404.43 384.443 401.363 386.705 399.467 389.85C397.571 392.995 397.002 396.764 397.884 400.328C398.804 404.041 401.131 407.03 404.167 408.846L404.183 408.842C405.001 409.335 405.263 410.393 404.77 411.21C404.277 412.028 403.202 412.294 402.389 411.818C398.595 409.531 395.673 405.797 394.525 401.16C393.421 396.705 394.132 391.994 396.502 388.063C398.873 384.132 402.707 381.304 407.162 380.2ZM428.123 392.838C429.271 397.474 428.43 402.14 426.143 405.934C425.646 406.735 424.587 406.997 423.77 406.504C422.952 406.011 422.69 404.953 423.183 404.135C425.016 401.096 425.683 397.383 424.763 393.67C424.347 391.99 423.612 390.389 422.649 389.023L423.808 384.992C425.826 387.166 427.365 389.78 428.123 392.838Z" fill="white"/>
<rect width="300" height="480" rx="2" fill="white"/>
<rect x="35" y="35" width="230" height="134" rx="2" fill="#A5D6A7" fill-opacity="0.66"/>
<rect opacity="0.53" x="35" y="194" width="230" height="27" rx="2" fill="#A5D6A7"/>
<rect x="35" y="246" width="137" height="199" fill="url(#paint0_linear_1028_1032)"/>
<rect opacity="0.57" x="187" y="246" width="78" height="64" rx="2" fill="#A5D6A7"/>
<rect opacity="0.6" x="187" y="322" width="78" height="55" rx="2" fill="#A5D6A7"/>
<rect opacity="0.5" x="187" y="389" width="78" height="56" rx="2" fill="#A5D6A7"/>
<path d="M377.795 371.295C358.482 349.772 331.574 292.451 378.448 235.356" stroke="url(#paint1_linear_1028_1032)" stroke-linecap="round" stroke-linejoin="round" stroke-dasharray="2 2"/>
<path d="M375.753 233.513L380.883 233V237.617" stroke="url(#paint2_linear_1028_1032)" stroke-linecap="round" stroke-linejoin="round" stroke-dasharray="2 2"/>
<rect x="330" width="170" height="280" rx="2" fill="white"/>
<rect x="384" y="213" width="69" height="19.5283" rx="9.76415" fill="#36A269"/>
<path d="M399.37 219.51V223.177C399.37 223.948 398.838 224.503 397.972 224.503C397.109 224.503 396.574 223.948 396.574 223.177V219.51H395.717V223.246C395.717 224.439 396.61 225.285 397.972 225.285C399.334 225.285 400.23 224.439 400.23 223.246V219.51H399.37Z" fill="white"/>
<!-- Shortened due to SVG length constraints -->
</svg>
