<svg xmlns="http://www.w3.org/2000/svg" width="180" height="50" viewBox="0 0 284 276" version="1.1"><path d="M 123.500 7 C 119.648 7.690, 119.620 7.721, 122.750 7.858 C 124.537 7.936, 126 8.255, 126 8.566 C 126 10.408, 123.641 13, 121.965 13 C 120.884 13, 120 13.638, 120 14.418 C 120 15.198, 119.849 16.436, 119.664 17.168 C 119.479 17.901, 119.517 18.163, 119.747 17.750 C 120.488 16.425, 122 16.950, 122 18.531 C 122 19.374, 122.622 20.301, 123.382 20.593 C 124.323 20.954, 124.616 22.219, 124.300 24.562 C 123.849 27.913, 123.926 28, 127.337 28 C 131.739 28, 134 27.152, 134 25.500 C 134 24.793, 134.698 23.946, 135.552 23.618 C 136.406 23.291, 136.899 23.355, 136.648 23.761 C 135.834 25.078, 174.223 24.574, 177.315 23.227 C 178.863 22.552, 180.762 22, 181.534 22 C 182.435 22, 182.707 21.401, 182.295 20.326 C 181.777 18.976, 182.025 18.814, 183.576 19.488 C 184.634 19.948, 187.300 20.525, 189.500 20.770 C 191.700 21.016, 194.287 21.913, 195.250 22.763 C 196.440 23.815, 197 23.921, 197 23.096 C 197 22.368, 197.501 22.200, 198.250 22.676 C 198.938 23.112, 199.725 23.480, 200 23.492 C 200.275 23.504, 201.544 24.251, 202.820 25.151 C 204.468 26.312, 204.758 26.940, 203.820 27.314 C 203.094 27.605, 203.642 27.878, 205.039 27.921 C 206.435 27.964, 209.242 28.849, 211.277 29.887 C 217.148 32.880, 214.684 30.634, 207.268 26.233 C 188.395 15.032, 176.272 10.650, 155.490 7.517 C 145.224 5.970, 130.575 5.733, 123.500 7 M 116.813 8.683 C 117.534 8.972, 118.397 8.936, 118.729 8.604 C 119.061 8.272, 118.471 8.036, 117.417 8.079 C 116.252 8.127, 116.015 8.364, 116.813 8.683 M 111.500 9.654 C 110.400 9.887, 106.575 10.759, 103 11.594 L 96.500 13.110 96.024 19.305 C 94.563 38.321, 96.177 47.930, 103.457 63.538 C 113.412 84.882, 133.329 106.360, 159 123.434 C 195.860 147.950, 238.553 157.773, 260.587 146.807 L 267 143.615 267 135.308 L 267 127 264.938 129.062 C 259.729 134.271, 245.490 137.614, 232.437 136.693 C 197.991 134.262, 158.332 112.053, 131.108 79.947 C 121.557 68.685, 114.968 56.161, 111.933 43.504 C 109.454 33.165, 109.502 31.134, 112.500 19.597 C 113.875 14.305, 115 9.756, 115 9.487 C 115 8.970, 114.664 8.986, 111.500 9.654 M 122.638 15.500 C 122.955 16.325, 123.561 17, 123.985 17 C 124.408 17, 125.315 16.325, 126 15.500 C 127.052 14.232, 126.844 14, 124.654 14 C 122.762 14, 122.218 14.405, 122.638 15.500 M 83 19.411 C 78.875 21.817, 72.350 25.858, 68.500 28.391 C 64.650 30.923, 61.050 33.149, 60.500 33.335 C 59.902 33.538, 60.031 34.319, 60.821 35.275 C 61.829 36.497, 61.984 39.318, 61.474 47.188 C 59.762 73.600, 70.385 100.283, 93.049 126.500 C 105.533 140.940, 116.800 151.065, 130.549 160.196 C 166.649 184.169, 205.144 195.921, 234.692 191.990 C 240.086 191.272, 246.659 190.643, 249.299 190.592 C 254.048 190.501, 254.122 190.449, 256.460 185.500 C 259.456 179.160, 260.609 172.995, 258.795 173.013 C 258.083 173.020, 253.926 174.167, 249.558 175.562 C 238.240 179.176, 228.554 180.188, 216.348 179.031 C 198.564 177.346, 180.847 171.965, 162.130 162.566 C 142.315 152.613, 129.570 143.458, 114.043 128.020 C 92.979 107.077, 80.195 84.876, 77.023 63.730 C 75.523 53.734, 77.070 39.676, 80.458 32.500 C 81.757 29.750, 83.603 25.539, 84.561 23.143 C 85.622 20.489, 87.513 18.048, 89.401 16.897 C 95.741 13.031, 90.221 15.199, 83 19.411 M 219 34.378 C 219 34.585, 219.787 35.373, 220.750 36.128 C 222.336 37.371, 222.371 37.336, 221.128 35.750 C 219.821 34.084, 219 33.555, 219 34.378 M 227 41.378 C 227 41.585, 227.787 42.373, 228.750 43.128 C 230.336 44.371, 230.371 44.336, 229.128 42.750 C 227.821 41.084, 227 40.555, 227 41.378 M 47.838 45.750 C 39.536 54.476, 25.336 75.576, 28.612 74.319 C 29.718 73.894, 30.002 75.280, 30.008 81.143 C 30.062 134.583, 84.693 197.552, 152 221.755 C 171.554 228.787, 184.189 231, 204.776 231 L 220.451 231 228.208 222.750 C 232.474 218.212, 235.973 214.250, 235.983 213.944 C 235.992 213.639, 232.063 214.193, 227.250 215.177 C 209.080 218.892, 180.138 217.019, 162.368 210.979 C 134.999 201.675, 109.281 186.073, 89.153 166.561 C 63.476 141.670, 49.252 117.273, 45.926 92.418 C 43.819 76.674, 46.794 48.568, 51.118 43.358 C 53.442 40.558, 51.273 42.140, 47.838 45.750 M 231 45.378 C 231 45.585, 231.787 46.373, 232.750 47.128 C 234.336 48.371, 234.371 48.336, 233.128 46.750 C 231.821 45.084, 231 44.555, 231 45.378 M 15.173 111.434 C 10.542 129.215, 11.293 147.322, 17.186 160 C 24.383 175.480, 40 196.206, 55.349 210.648 C 81.142 234.915, 106.585 249.525, 138 258.108 C 140.475 258.784, 142.883 259.667, 143.351 260.070 C 143.819 260.473, 145.616 260.397, 147.345 259.901 C 149.073 259.406, 152.397 259, 154.731 259 C 158.863 259, 177.604 253.647, 179.395 251.956 C 180.598 250.819, 177.299 250.224, 166.500 249.628 C 146.056 248.499, 119.628 240.241, 100.724 229.075 C 74.999 213.881, 51.274 190.436, 36.165 165.280 C 29.249 153.765, 18.690 120.021, 17.772 106.500 C 17.526 102.878, 17.280 103.345, 15.173 111.434" stroke="none" fill="#eef5f4" fill-rule="evenodd"/><path d="M 117.393 8.687 C 115.703 9.020, 114.851 10.689, 113.087 17.125 C 109.736 29.354, 109.536 33.423, 111.820 43 C 116.850 64.100, 130.451 83.015, 155.500 103.745 C 166.099 112.516, 186.979 124.485, 201 129.827 C 222.483 138.011, 246.408 138.959, 260.032 132.166 C 265.354 129.513, 265.508 129.317, 265.799 124.866 C 266.484 114.383, 258.492 86.155, 250.974 72.500 C 239.444 51.561, 219.793 31.796, 207.105 28.376 C 204.572 27.693, 203.163 27.105, 203.973 27.067 C 205.053 27.018, 204.920 26.632, 203.473 25.618 C 202.388 24.859, 201.232 24.296, 200.904 24.368 C 200.576 24.441, 199.563 23.882, 198.654 23.128 C 197.361 22.055, 197 22.034, 197 23.033 C 197 23.967, 196.530 23.894, 195.250 22.763 C 194.287 21.913, 191.700 21.016, 189.500 20.770 C 187.300 20.525, 184.634 19.948, 183.576 19.488 C 182.025 18.814, 181.777 18.976, 182.295 20.326 C 182.707 21.401, 182.435 22, 181.534 22 C 180.762 22, 178.863 22.552, 177.315 23.227 C 174.223 24.574, 135.834 25.078, 136.648 23.761 C 136.899 23.355, 136.406 23.291, 135.552 23.618 C 134.698 23.946, 134 24.793, 134 25.500 C 134 27.152, 131.739 28, 127.337 28 C 123.926 28, 123.849 27.913, 124.300 24.562 C 124.616 22.219, 124.323 20.954, 123.382 20.593 C 122.622 20.301, 122 19.374, 122 18.531 C 122 16.950, 120.488 16.425, 119.747 17.750 C 119.517 18.163, 119.479 17.901, 119.664 17.168 C 119.849 16.436, 120 15.198, 120 14.418 C 120 13.638, 120.884 13, 121.965 13 C 123.641 13, 126 10.408, 126 8.566 C 126 7.949, 120.766 8.023, 117.393 8.687 M 91.208 15.992 C 87.578 17.639, 86.528 18.830, 84.393 23.720 C 83.005 26.899, 81.018 31.300, 79.977 33.500 C 75.144 43.716, 75.412 63.509, 80.585 78.398 C 89.731 104.723, 116.840 135.872, 146.257 153.856 C 169.674 168.172, 194.010 176.915, 216.334 179.030 C 228.658 180.198, 237.279 179.268, 250.418 175.354 L 259.999 172.500 261.574 167.768 C 263.349 162.436, 267.111 144.777, 266.584 144.251 C 266.396 144.062, 263.549 145.276, 260.259 146.948 C 242.961 155.738, 211.575 151.182, 179.500 135.225 C 138.226 114.692, 106.092 80.362, 97.387 47.500 C 95.405 40.017, 94.986 29.096, 96.322 19.750 C 96.774 16.587, 96.774 14.010, 96.322 14.022 C 95.870 14.034, 93.569 14.920, 91.208 15.992 M 122.638 15.500 C 122.955 16.325, 123.561 17, 123.985 17 C 124.408 17, 125.315 16.325, 126 15.500 C 127.052 14.232, 126.844 14, 124.654 14 C 122.762 14, 122.218 14.405, 122.638 15.500 M 54.764 38.918 C 49.922 44.303, 47.855 49.893, 46.045 62.500 C 40.652 100.054, 54.145 132.625, 89.153 166.561 C 106.440 183.319, 123.891 194.803, 148 205.287 C 160.250 210.615, 166.880 212.712, 178.668 214.987 C 197.724 218.664, 229.377 217.098, 237.646 212.069 C 241.342 209.821, 251.537 196.419, 252.422 192.646 C 253.185 189.390, 254.787 189.445, 234.692 192.032 C 204.954 195.860, 166.597 184.134, 130.549 160.196 C 116.800 151.065, 105.533 140.940, 93.049 126.500 C 70.307 100.193, 59.792 73.693, 61.479 46.933 C 62.022 38.309, 61.877 36.143, 60.689 35.156 C 59.491 34.162, 58.439 34.830, 54.764 38.918 M 25.376 79.685 C 20.747 90.151, 18 99.725, 18 105.390 C 18 117.779, 28.573 152.640, 36.165 165.280 C 51.274 190.436, 74.999 213.881, 100.724 229.075 C 113.956 236.891, 130.883 243.358, 147.500 246.945 C 159.931 249.630, 179.849 251.139, 186.545 249.905 C 191.605 248.973, 208.361 241.009, 215.420 236.181 C 222.469 231.360, 221.720 231, 204.634 231 C 184.202 231, 171.510 228.771, 152 221.755 C 84.759 197.576, 30.063 134.579, 30.008 81.250 C 30.003 76.836, 29.587 74, 28.945 74 C 28.365 74, 26.759 76.558, 25.376 79.685 M 16 160.270 C 16 163.919, 20.708 177.741, 25.076 186.914 C 37.908 213.867, 57.135 234.055, 81.877 246.557 C 95.567 253.474, 118.634 259.491, 136 260.675 C 145.114 261.296, 145.913 260.270, 138 258.108 C 100.493 247.860, 66.594 225.890, 40.224 194.740 C 32.702 185.854, 20.915 168.433, 18.477 162.600 C 16.933 158.905, 16 158.027, 16 160.270" stroke="none" fill="#1e746d" fill-rule="evenodd"/></svg>